<?xml version="1.0" encoding="UTF-8"?>
<!DOCTYPE svg PUBLIC "-//W3C//DTD SVG 1.1//EN" "http://www.w3.org/Graphics/SVG/1.1/DTD/svg11.dtd">
<!-- Creator: CorelDRAW 2017 -->
<svg xmlns="http://www.w3.org/2000/svg" xml:space="preserve" width="215.9mm" height="355.6mm" version="1.1" style="shape-rendering:geometricPrecision; text-rendering:geometricPrecision; image-rendering:optimizeQuality; fill-rule:evenodd; clip-rule:evenodd"
viewBox="0 0 21590 35560"
 xmlns:xlink="http://www.w3.org/1999/xlink">
 <defs>
  <style type="text/css">
   <![CDATA[
    .fil0 {fill:none}
    .fil2 {fill:black}
    .fil1 {fill:black;fill-rule:nonzero}
   ]]>
  </style>
 </defs>
 <g id="Layer_x0020_1">
  <metadata id="CorelCorpID_0Corel-Layer"/>
  <rect class="fil0" x="158" y="7156" width="21212" height="21212"/>
  <g id="_2288254754560">
   <g>
    <path class="fil1" d="M20455 23721l0 -520 -1111 0 0 -502 931 0 0 -498 -931 0 0 -509 1082 0 0 -520 -1645 0 0 2547 1674 0zm-1992 0l0 -538 -1025 0 0 -2010 -574 0 0 2547 1598 0zm-1916 0l0 -538 -1025 0 0 -2010 -574 0 0 2547 1599 0zm-2082 0l0 -2547 -585 0 0 2547 585 0zm-2010 -657l-548 -1891 -621 0 826 2547 682 0 826 -2547 -621 0 -545 1891zm-2154 693c570,0 917,-278 917,-787 0,-484 -336,-664 -765,-751 -346,-69 -476,-119 -476,-321 0,-173 123,-267 307,-267 152,0 318,65 426,281l447 -296c-108,-271 -437,-480 -898,-480 -498,0 -862,285 -862,776 0,516 361,693 812,794 310,69 429,130 429,296 0,180 -148,260 -361,260 -216,0 -411,-83 -530,-299l-429 328c144,289 502,465 985,465zm-1310 -36l0 -2547 -585 0 0 2547 585 0zm-2060 40c725,0 1036,-397 1036,-1061l0 -1526 -570 0 0 1505c0,336 -108,552 -465,552 -357,0 -465,-217 -465,-552l0 -1505 -574 0 0 1526c0,664 310,1061 1039,1061zm-2710 0c765,0 1342,-530 1342,-1313 0,-783 -577,-1313 -1342,-1313 -754,0 -1339,530 -1339,1313 0,783 585,1313 1339,1313zm0 -530c-437,0 -751,-321 -751,-783 0,-462 314,-783 751,-783 451,0 754,321 754,783 0,462 -303,783 -754,783zm-1487 491l0 -538 -1025 0 0 -2010 -574 0 0 2547 1599 0z"/>
    <path class="fil2" d="M6763 25082l568 -674 -292 0 -546 646 0 -646 -230 0 0 1421 230 0 0 -707 594 707 298 0 -622 -747zm-5628 -67l4567 0 0 207 -4567 0 0 -207zm14752 0l4567 0 0 207 -4567 0 0 -207zm-1194 836c288,0 530,-135 632,-401l-211 -99c-64,191 -230,286 -425,286 -292,0 -501,-213 -501,-519 0,-306 213,-519 491,-519 187,0 346,97 405,258l211 -107c-95,-225 -332,-364 -616,-364 -413,0 -729,300 -729,733 0,433 314,733 743,733zm-985 -22l-517 -1421 -264 0 -517 1421 244 0 115 -324 582 0 115 324 244 0zm-431 -534l-437 0 217 -638 219 638zm-1569 262l-379 -1150 -248 0 493 1421 266 0 491 -1421 -248 0 -376 1150zm-1867 272l0 -606 656 0 0 606 232 0 0 -1421 -232 0 0 604 -656 0 0 -604 -230 0 0 1421 230 0zm-1531 0l0 -536 495 -886 -268 0 -340 646 -340 -646 -268 0 491 884 0 538 230 0z"/>
   </g>
   <g>
    <path class="fil2" d="M10793 12037c0,0 -465,830 -557,1020 -165,341 -351,807 -230,1190 55,175 102,298 102,298 -224,-200 -518,-320 -902,-270 -589,74 -988,598 -811,1215 214,620 756,707 1178,827 -148,-136 -437,-387 -399,-616 21,-231 268,-329 489,-302 245,27 421,153 546,320 35,47 47,70 47,70 -157,137 -60,394 46,471 -18,74 -92,187 -172,202 -29,5 -54,-7 -78,-48 -68,-118 -91,-451 -103,-593 -176,304 -595,702 -224,1091 184,173 424,170 548,134 -98,96 -196,181 -302,266 152,31 396,92 541,19 70,233 135,380 281,536 146,-156 211,-303 281,-536 145,73 390,11 541,-19 -107,-85 -205,-171 -302,-266 123,36 364,40 548,-134 371,-389 -47,-787 -224,-1091 -12,142 -35,476 -103,593 -23,40 -49,53 -78,48 -81,-15 -154,-128 -172,-202 106,-77 203,-333 46,-471 0,0 12,-23 47,-70 125,-167 301,-293 546,-320 221,-28 468,71 489,302 37,229 -251,480 -399,616 423,-120 964,-207 1178,-827 177,-616 -223,-1141 -811,-1215 -384,-49 -678,70 -902,270 0,0 46,-124 102,-298 121,-383 -65,-849 -230,-1190 -92,-189 -557,-1020 -557,-1020zm-440 582l-1 1c-189,354 -387,742 -459,1099l-456 -456 0 -1066c0,-140 -115,-255 -255,-255l0 0c-140,0 -255,115 -255,255l0 557 -636 -636c-99,-99 -261,-99 -360,0l0 0c-99,99 -99,261 0,360l636 636 -557 0c-140,0 -255,115 -255,255l0 0c0,140 115,255 255,255l1066 0 568 568c-407,-99 -883,20 -1154,346 -9,11 -19,22 -28,33l-597 -597c-99,-99 -261,-99 -360,0l0 0c-99,99 -99,261 0,360l394 394 -900 0c-140,0 -255,115 -255,255l0 0c0,140 115,255 255,255l900 0 -394 394c-99,99 -99,261 0,360l0 0c99,99 261,99 360,0l443 -443c80,244 241,439 458,575 110,69 233,120 365,163l-55 55 -1066 0c-140,0 -255,115 -255,255l0 0c0,140 115,255 255,255l557 0 -636 636c-99,99 -99,261 0,360l0 0c99,99 261,99 360,0l636 -636 0 557c0,140 115,255 255,255l0 0c140,0 255,-115 255,-255l0 -1066 54 -54c32,263 236,460 506,511 -81,73 -167,139 -247,211 152,25 333,74 491,89l-454 454c-99,99 -99,261 0,360l0 0c99,99 261,99 360,0l394 -394 0 900c0,140 115,255 255,255l0 0c140,0 255,-115 255,-255l0 -900 394 394c99,99 261,99 360,0l0 0c99,-99 99,-261 0,-360l-454 -454c158,-15 339,-64 490,-89 -80,-72 -166,-138 -247,-211 270,-52 474,-249 506,-512l54 54 0 1066c0,140 115,255 255,255l0 0c140,0 255,-115 255,-255l0 -557 636 636c99,99 261,99 360,0l0 0c99,-99 99,-261 0,-360l-636 -636 557 0c140,0 255,-115 255,-255l0 0c0,-140 -115,-255 -255,-255l-1066 0 -55 -55c132,-43 255,-94 365,-163 217,-136 378,-331 458,-575l443 443c99,99 261,99 360,0l0 0c99,-99 99,-261 0,-360l-394 -394 900 0c140,0 255,-115 255,-255l0 0c0,-140 -115,-255 -255,-255l-900 0 394 -394c99,-99 99,-261 0,-360l0 0c-99,-99 -261,-99 -360,0l-597 597c-9,-12 -18,-23 -28,-33 -271,-325 -747,-445 -1154,-346l568 -568 1066 0c140,0 255,-115 255,-255l0 0c0,-140 -115,-255 -255,-255l-557 0 636 -636c99,-99 99,-261 0,-360l0 0c-99,-99 -261,-99 -360,0l-636 636 0 -557c0,-140 -115,-255 -255,-255l0 0c-140,0 -255,115 -255,255l0 1066 -456 456c-72,-358 -270,-745 -459,-1100l-1 -1 566 -566c99,-99 99,-261 0,-360l0 0c-99,-99 -261,-99 -360,0l-394 394 0 -900c0,-140 -115,-255 -255,-255l0 0c-140,0 -255,115 -255,255l0 900 -394 -394c-99,-99 -261,-99 -360,0l0 0c-99,99 -99,261 0,360l566 566z"/>
    <path class="fil2" d="M10795 9709c2913,0 5274,2361 5274,5274 0,2913 -2361,5274 -5274,5274 -2913,0 -5274,-2361 -5274,-5274 0,-2913 2361,-5274 5274,-5274zm0 434c2673,0 4840,2167 4840,4840 0,2673 -2167,4840 -4840,4840 -2673,0 -4840,-2167 -4840,-4840 0,-2673 2167,-4840 4840,-4840zm0 222c2550,0 4618,2068 4618,4618 0,2550 -2068,4618 -4618,4618 -2550,0 -4618,-2068 -4618,-4618 0,-2550 2068,-4618 4618,-4618zm0 -433c2790,0 5051,2262 5051,5051 0,2790 -2262,5051 -5051,5051 -2790,0 -5051,-2262 -5051,-5051 0,-2790 2262,-5051 5051,-5051z"/>
    <path class="fil2" d="M9145 16049c-174,-186 -181,-821 503,-779 313,23 673,256 762,568l200 45c-44,-411 -221,-887 -517,-1182 -167,-166 -420,-304 -661,-312 -1163,-38 -1268,1357 -286,1660zm1152 -49c9,76 39,131 106,175 201,129 582,129 783,0 68,-44 98,-99 106,-175 5,-156 -83,-117 -190,-73 -170,58 -447,58 -616,0 -107,-44 -195,-83 -190,73zm806 763c-67,-86 -152,-298 -138,-436l197 -49c17,52 35,129 105,206 167,184 415,160 463,-285 23,37 46,55 71,96 187,308 22,573 -220,635 -156,40 -355,-13 -477,-168zm224 471c-171,31 -281,-63 -337,-111 -13,158 -109,437 -195,542 -86,-105 -182,-384 -195,-542 -56,48 -166,142 -337,111 264,-222 375,-568 423,-897l109 1 109 -1c48,329 159,675 423,897zm1118 -1185c174,-186 181,-821 -503,-779 -313,23 -673,256 -762,568l-200 45c44,-411 221,-887 517,-1182 167,-166 420,-304 661,-312 1163,-38 1268,1357 286,1660zm-1920 -837c54,191 88,370 125,565 8,55 14,77 18,112 30,5 78,11 127,13 49,-2 97,-8 127,-13 4,-35 10,-57 18,-112 37,-195 71,-374 125,-565 109,-387 439,-875 432,-1253 -10,-497 -446,-1205 -702,-1660 -256,455 -692,1163 -702,1660 -8,378 322,866 432,1253zm-38 1551c67,-86 152,-298 138,-436l-197 -49c-17,52 -35,129 -105,206 -167,184 -415,160 -463,-285 -23,37 -46,55 -71,96 -187,308 -22,573 220,635 156,40 355,-13 477,-168z"/>
   </g>
  </g>
 </g>
</svg>
